<svg xmlns="http://www.w3.org/2000/svg" viewBox="0 0 24 24" fill="hsl(var(--primary))" class="w-6 h-6">
  <title>Chess Icon</title>
  <path fill-rule="evenodd" d="M12.963 2.286a.75.75 0 0 0-1.071 1.05l.71.71H6.75a.75.75 0 0 0 0 1.5h6.953l-.71.71a.75.75 0 1 0 1.07 1.05l2.122-2.12a.75.75 0 0 0 0-1.05l-2.122-2.121Zm-.707 6.287a.75.75 0 0 0-1.05-1.07l-.71.71V2.25a.75.75 0 0 0-1.5 0v7.006l-.71-.71a.75.75 0 0 0-1.05 1.07l2.121 2.121a.75.75 0 0 0 1.05 0l2.121-2.12Z" clip-rule="evenodd" />
  <path d="M6.75 19.5a.75.75 0 0 0 .75-.75V13.5a.75.75 0 0 0-1.5 0v5.25a.75.75 0 0 0 .75.75Z" />
  <path d="M12.75 19.5a.75.75 0 0 0 .75-.75V13.5a.75.75 0 0 0-1.5 0v5.25a.75.75 0 0 0 .75.75Z" />
  <path d="M18.75 19.5a.75.75 0 0 0 .75-.75V13.5a.75.75 0 0 0-1.5 0v5.25a.75.75 0 0 0 .75.75Z" />
</svg>
